<svg width="191" height="28" viewBox="0 0 191 28" fill="none" xmlns="http://www.w3.org/2000/svg">
<path d="M18.8331 21.4938V6.82573H22.46V21.4938H18.8331ZM18.63 4.06639V0.52282H22.6631V4.06639H18.63Z" fill="white"/>
<path d="M53.8717 21.7842C52.3629 21.7842 51.0378 21.4744 49.8966 20.8548C48.7746 20.2351 47.9042 19.3541 47.2852 18.2116C46.6662 17.0498 46.3567 15.675 46.3567 14.0871C46.3567 12.4993 46.6662 11.1438 47.2852 10.0207C47.9235 8.89765 48.8037 8.03596 49.9256 7.43568C51.0475 6.83541 52.3629 6.53527 53.8717 6.53527C54.8389 6.53527 55.777 6.69018 56.6862 7C57.6147 7.29046 58.3691 7.71646 58.9494 8.27801L57.8468 10.805C57.3245 10.3209 56.7345 9.96266 56.0769 9.73029C55.4385 9.47856 54.8099 9.3527 54.1909 9.3527C52.8948 9.3527 51.8793 9.75934 51.1442 10.5726C50.4285 11.3859 50.0707 12.5671 50.0707 14.1162C50.0707 15.6653 50.4285 16.8562 51.1442 17.6888C51.8793 18.5214 52.8948 18.9378 54.1909 18.9378C54.7905 18.9378 55.4095 18.8216 56.0478 18.5892C56.7055 18.3568 57.3052 17.9986 57.8468 17.5145L58.9494 20.0124C58.3497 20.574 57.5857 21.0097 56.6572 21.3195C55.748 21.6293 54.8195 21.7842 53.8717 21.7842Z" fill="white"/>
<path d="M68.0933 21.7842C66.5845 21.7842 65.2788 21.4744 64.1762 20.8548C63.0737 20.2351 62.2129 19.3541 61.5939 18.2116C60.9942 17.0692 60.6944 15.7137 60.6944 14.1452C60.6944 12.5768 60.9942 11.231 61.5939 10.1079C62.2129 8.96542 63.0737 8.08437 64.1762 7.46473C65.2788 6.84509 66.5845 6.53527 68.0933 6.53527C69.6021 6.53527 70.9078 6.84509 72.0104 7.46473C73.1323 8.08437 73.9931 8.96542 74.5928 10.1079C75.2118 11.231 75.5213 12.5768 75.5213 14.1452C75.5213 15.7137 75.2118 17.0692 74.5928 18.2116C73.9931 19.3541 73.1323 20.2351 72.0104 20.8548C70.9078 21.4744 69.6021 21.7842 68.0933 21.7842ZM68.0933 18.9959C69.2346 18.9959 70.1438 18.5989 70.8208 17.805C71.4978 16.9917 71.8363 15.7718 71.8363 14.1452C71.8363 12.5187 71.4978 11.3084 70.8208 10.5145C70.1438 9.72061 69.2346 9.32365 68.0933 9.32365C66.9521 9.32365 66.0429 9.72061 65.3659 10.5145C64.6889 11.3084 64.3503 12.5187 64.3503 14.1452C64.3503 15.7718 64.6889 16.9917 65.3659 17.805C66.0429 18.5989 66.9521 18.9959 68.0933 18.9959Z" fill="white"/>
<path d="M137.147 21.7842C135.638 21.7842 134.332 21.4744 133.23 20.8548C132.127 20.2351 131.266 19.3541 130.647 18.2116C130.048 17.0692 129.748 15.7137 129.748 14.1452C129.748 12.5768 130.048 11.231 130.647 10.1079C131.266 8.96542 132.127 8.08437 133.23 7.46473C134.332 6.84509 135.638 6.53527 137.147 6.53527C138.655 6.53527 139.961 6.84509 141.064 7.46473C142.186 8.08437 143.046 8.96542 143.646 10.1079C144.265 11.231 144.575 12.5768 144.575 14.1452C144.575 15.7137 144.265 17.0692 143.646 18.2116C143.046 19.3541 142.186 20.2351 141.064 20.8548C139.961 21.4744 138.655 21.7842 137.147 21.7842ZM137.147 18.9959C138.288 18.9959 139.197 18.5989 139.874 17.805C140.551 16.9917 140.89 15.7718 140.89 14.1452C140.89 12.5187 140.551 11.3084 139.874 10.5145C139.197 9.72061 138.288 9.32365 137.147 9.32365C136.005 9.32365 135.096 9.72061 134.419 10.5145C133.742 11.3084 133.404 12.5187 133.404 14.1452C133.404 15.7718 133.742 16.9917 134.419 17.805C135.096 18.5989 136.005 18.9959 137.147 18.9959Z" fill="white"/>
<path d="M153.828 21.7842C152.087 21.7842 150.772 21.3292 149.882 20.4191C148.992 19.509 148.547 18.1438 148.547 16.3237V9.55602H145.733V6.82573H148.547V3.07884L152.174 2.14938V6.82573H156.091V9.55602H152.174V16.0913C152.174 17.0982 152.368 17.805 152.754 18.2116C153.141 18.6183 153.673 18.8216 154.35 18.8216C154.718 18.8216 155.027 18.7925 155.279 18.7344C155.55 18.6763 155.811 18.5989 156.062 18.5021V21.3776C155.733 21.5131 155.366 21.61 154.96 21.6681C154.573 21.7455 154.196 21.7842 153.828 21.7842Z" fill="white"/>
<path d="M158.659 21.4938V17.4564H162.721V21.4938H158.659Z" fill="#D26351"/>
<path d="M18.63 0.52282V4.06639H22.6631V0.52282H18.63Z" fill="#D26351"/>
<path fill-rule="evenodd" clip-rule="evenodd" d="M97.9477 19.751C99.3405 21.1065 101.265 21.7842 103.722 21.7842C104.805 21.7842 105.83 21.6293 106.797 21.3195C107.765 21.0097 108.596 20.574 109.293 20.0124L108.219 17.5726C107.562 18.0761 106.865 18.444 106.13 18.6763C105.414 18.8894 104.641 18.9959 103.809 18.9959C102.377 18.9959 101.265 18.6086 100.472 17.834C99.7757 17.1196 99.3927 16.0836 99.3231 14.7261H109.467V13.7676C109.467 12.3154 109.215 11.047 108.712 9.96266C108.229 8.87829 107.513 8.03596 106.565 7.43568C105.617 6.83541 104.438 6.53527 103.025 6.53527C101.594 6.53527 100.337 6.85477 99.2534 7.49378C98.1895 8.13278 97.3577 9.02351 96.7581 10.166C96.1584 11.3084 95.8586 12.6445 95.8586 14.1743C95.8586 16.5367 96.555 18.3956 97.9477 19.751ZM99.3702 12.8091H106.382C106.329 11.6513 106.042 10.7509 105.521 10.1079C104.96 9.39142 104.138 9.03319 103.054 9.03319C101.855 9.03319 100.927 9.4592 100.269 10.3112C99.7888 10.9521 99.4892 11.7847 99.3702 12.8091Z" fill="white"/>
<path fill-rule="evenodd" clip-rule="evenodd" d="M34.8421 6.82573V9.55602H37.2742V16.3237C37.2742 18.1438 37.7191 19.509 38.6089 20.4191C39.4987 21.3292 40.8141 21.7842 42.555 21.7842C42.9225 21.7842 43.2997 21.7455 43.6866 21.6681C44.0928 21.61 44.4603 21.5131 44.7892 21.3776V18.5021C44.5377 18.5989 44.2766 18.6763 44.0058 18.7344C43.7543 18.7925 43.4448 18.8216 43.0773 18.8216C42.4002 18.8216 41.8683 18.6183 41.4814 18.2116C41.0945 17.805 40.9011 17.0982 40.9011 16.0913V9.55602H44.8182V6.82573H40.9011V2.14938L37.2742 3.07884V6.82573H34.8421Z" fill="white"/>
<path fill-rule="evenodd" clip-rule="evenodd" d="M117.674 20.8838C118.602 21.4841 119.686 21.7842 120.924 21.7842C122.2 21.7842 123.322 21.4841 124.289 20.8838C125.276 20.2642 126.04 19.3928 126.582 18.2697C127.123 17.1272 127.394 15.7621 127.394 14.1743C127.394 12.5864 127.123 11.231 126.582 10.1079C126.04 8.96542 125.286 8.08437 124.318 7.46473C123.351 6.84509 122.22 6.53527 120.924 6.53527C119.705 6.53527 118.631 6.83541 117.703 7.43568C117.035 7.85338 116.523 8.3812 116.165 9.01915V0.116181H112.538V21.4938H116.136V19.1878C116.484 19.8665 116.997 20.4318 117.674 20.8838ZM122.665 17.805C121.968 18.5989 121.049 18.9959 119.908 18.9959C118.767 18.9959 117.848 18.5989 117.152 17.805C116.455 16.9917 116.107 15.7718 116.107 14.1452C116.107 12.5187 116.455 11.3084 117.152 10.5145C117.848 9.72061 118.767 9.32365 119.908 9.32365C121.049 9.32365 121.968 9.73029 122.665 10.5436C123.38 11.3375 123.738 12.5477 123.738 14.1743C123.738 15.8008 123.38 17.0111 122.665 17.805Z" fill="white"/>
<path fill-rule="evenodd" clip-rule="evenodd" d="M3.88807 27.5643C4.99066 27.8548 6.21898 28 7.57303 28C9.97164 28 11.7899 27.39 13.0279 26.1701C14.2853 24.9696 14.9139 23.2172 14.9139 20.9129V10.4855C14.9139 9.8852 14.9333 9.27524 14.972 8.6556C15.0107 8.03596 15.0687 7.426 15.1461 6.82573H11.6352L11.3861 9.24467C11.0396 8.50464 10.4939 7.90164 9.74919 7.43568C8.84004 6.83541 7.76647 6.53527 6.52847 6.53527C5.21311 6.53527 4.06216 6.83541 3.07564 7.43568C2.10846 8.0166 1.35405 8.85892 0.812432 9.96266C0.270811 11.047 0 12.3347 0 13.8257C0 15.3167 0.270811 16.6141 0.812432 17.7178C1.35405 18.8216 2.10846 19.6736 3.07564 20.2739C4.06216 20.8548 5.21311 21.1452 6.52847 21.1452C7.74712 21.1452 8.82069 20.8451 9.74919 20.2448C10.4613 19.7938 10.9932 19.2281 11.345 18.5476V21.3485C11.345 22.5878 11.0065 23.5367 10.3295 24.195C9.67181 24.8728 8.66594 25.2116 7.31189 25.2116C6.65421 25.2116 6.0062 25.1535 5.36786 25.0373C4.72952 24.9212 4.11052 24.7469 3.51087 24.5145C2.91122 24.2822 2.33091 23.982 1.76994 23.6141L0.986525 26.2282C1.83764 26.8285 2.80483 27.2739 3.88807 27.5643ZM10.2715 17.195C9.59444 17.9696 8.67562 18.3568 7.515 18.3568C6.33504 18.3568 5.39687 17.9696 4.7005 17.195C4.00413 16.4011 3.65595 15.278 3.65595 13.8257C3.65595 12.3734 4.00413 11.26 4.7005 10.4855C5.39687 9.71093 6.33504 9.32365 7.515 9.32365C8.67562 9.32365 9.59444 9.71093 10.2715 10.4855C10.9678 11.26 11.316 12.3734 11.316 13.8257C11.316 15.278 10.9678 16.4011 10.2715 17.195Z" fill="white"/>
<path fill-rule="evenodd" clip-rule="evenodd" d="M80.9413 20.8838C81.9278 21.4841 83.0594 21.7842 84.3361 21.7842C85.5741 21.7842 86.6573 21.4841 87.5858 20.8838C88.2598 20.4432 88.7724 19.8949 89.1236 19.2389V21.4938H92.6925V0.116181H89.0656V8.94698C88.7154 8.34129 88.2125 7.83753 87.5568 7.43568C86.6283 6.83541 85.5547 6.53527 84.3361 6.53527C83.0594 6.53527 81.9278 6.84509 80.9413 7.46473C79.9741 8.06501 79.2197 8.93638 78.6781 10.0788C78.1365 11.2019 77.8656 12.5574 77.8656 14.1452C77.8656 15.7331 78.1365 17.0982 78.6781 18.2407C79.2197 19.3831 79.9741 20.2642 80.9413 20.8838ZM88.1081 17.805C87.4117 18.5989 86.4929 18.9959 85.3516 18.9959C84.2104 18.9959 83.2819 18.5989 82.5661 17.805C81.8698 16.9917 81.5216 15.7718 81.5216 14.1452C81.5216 12.5187 81.8698 11.3084 82.5661 10.5145C83.2819 9.72061 84.2104 9.32365 85.3516 9.32365C86.4929 9.32365 87.4117 9.72061 88.1081 10.5145C88.8045 11.3084 89.1526 12.5187 89.1526 14.1452C89.1526 15.7718 88.8045 16.9917 88.1081 17.805Z" fill="white"/>
<path fill-rule="evenodd" clip-rule="evenodd" d="M166.233 10.5726V21.4938H169.889V13.6805C169.889 12.8866 170.024 12.1798 170.295 11.5602C170.585 10.9405 171.011 10.4564 171.572 10.1079C172.152 9.75934 172.858 9.58506 173.69 9.58506C174.077 9.58506 174.396 9.60443 174.648 9.64315C174.918 9.68188 175.238 9.7787 175.605 9.93361L175.634 6.73859C175.421 6.66113 175.208 6.61272 174.996 6.59336C174.783 6.55463 174.502 6.53527 174.154 6.53527C173.381 6.53527 172.665 6.69018 172.007 7C171.349 7.30982 170.788 7.78423 170.324 8.42324C170.124 8.71064 169.949 9.03135 169.8 9.38535L169.541 6.82573H166.03C166.107 7.426 166.156 8.04564 166.175 8.68465C166.214 9.32365 166.233 9.95297 166.233 10.5726Z" fill="#D26351"/>
<path d="M27.3851 9.55602V21.4938H31.0121V9.55602H34.4597V6.82573H30.983V5.69295C30.983 5.03458 31.0894 4.51176 31.3022 4.12448C31.5343 3.71784 31.8438 3.4177 32.2307 3.22407C32.6369 3.03043 33.0915 2.93361 33.5944 2.93361C33.9233 2.93361 34.2618 2.96265 34.61 3.02075C34.9582 3.07884 35.258 3.15629 35.5095 3.25311V0.406639C35.1613 0.251729 34.7454 0.145228 34.2618 0.0871358C33.7975 0.0290453 33.3526 0 32.9271 0C31.1088 0 29.7257 0.46473 28.7779 1.39419C27.8494 2.32365 27.3851 3.69848 27.3851 5.51867V6.82573H24.5706V9.55602H27.3851Z" fill="white"/>
<path d="M182.934 21.7842C181.135 21.7842 179.79 21.2905 178.901 20.3029C178.011 19.3154 177.566 17.805 177.566 15.7718V6.82573H181.193V15.7427C181.193 16.8271 181.415 17.6307 181.86 18.1535C182.305 18.657 182.982 18.9087 183.891 18.9087C184.916 18.9087 185.748 18.5602 186.387 17.8631C187.044 17.166 187.373 16.2462 187.373 15.1037V6.82573H191V21.4938H187.46V19.3198C187.064 19.9817 186.551 20.5224 185.922 20.9419C185.071 21.5035 184.075 21.7842 182.934 21.7842Z" fill="#D26351"/>
</svg>
