<svg width="60" height="60" viewBox="0 0 60 60" fill="none" xmlns="http://www.w3.org/2000/svg">
<g clip-path="url(#clip0_3_114)">
<path d="M22.0225 37.3L37.2975 9.70749C37.5075 9.32749 37.7175 8.95249 37.9075 8.55999C38.08 8.20499 38.225 7.84749 38.32 7.45999C38.52 6.64499 38.465 5.79499 38.155 5.01749C37.8522 4.25255 37.308 3.60737 36.605 3.17999C35.9142 2.76101 35.1009 2.59076 34.3 2.69749C33.5 2.80499 32.7675 3.18249 32.19 3.77249C31.915 4.04749 31.69 4.35999 31.4825 4.69249C31.2525 5.05749 31.045 5.43749 30.835 5.81749L29.87 7.55999L28.9025 5.81499C28.6925 5.43749 28.485 5.05749 28.255 4.69249C28.0529 4.36052 27.8157 4.05124 27.5475 3.76999C26.9841 3.18632 26.2411 2.80865 25.4375 2.69749C24.6375 2.59155 23.8252 2.76176 23.135 3.17999C22.4322 3.60751 21.888 4.25264 21.585 5.01749C21.2738 5.79387 21.216 6.6488 21.42 7.45999C21.515 7.84749 21.66 8.20499 21.83 8.55999C22.02 8.95249 22.23 9.32749 22.44 9.70749L25.56 15.3425L13.405 37.2975H5.07251C4.65501 37.2975 4.23501 37.2975 3.81751 37.3225C3.43751 37.345 3.06751 37.3925 2.69751 37.5C1.92251 37.725 1.24251 38.2 0.752507 38.87C0.263005 39.5444 -0.000816915 40.3563 -0.00126591 41.1896C-0.0017149 42.0229 0.261233 42.8351 0.750007 43.51C1.24251 44.18 1.92001 44.6525 2.69751 44.88C3.06751 44.9875 3.43751 45.035 3.81751 45.0575C4.23501 45.0825 4.65501 45.0825 5.07501 45.0825H37.8175C37.9175 44.864 38.0011 44.6384 38.0675 44.4075C39.105 40.8675 36.5275 37.2975 32.98 37.2975L22.0225 37.3ZM7.78251 46.355L5.80251 50.105C5.59751 50.495 5.39001 50.88 5.20501 51.2825C5.03366 51.6446 4.89963 52.0232 4.80501 52.4125C4.6044 53.2453 4.66017 54.1194 4.96501 54.92C5.26751 55.715 5.80001 56.3775 6.48251 56.8075C7.16251 57.2375 7.95501 57.4125 8.73501 57.3C9.52001 57.19 10.235 56.805 10.8 56.2C11.07 55.9125 11.29 55.595 11.495 55.255C11.72 54.88 11.9225 54.49 12.1275 54.1L15 48.66C14.775 48.285 12.6325 44.985 7.78251 46.355ZM59.2475 38.84C58.7652 38.1873 58.0804 37.7126 57.3 37.49C56.9345 37.3892 56.5588 37.3297 56.18 37.3125C55.76 37.2875 55.3425 37.2875 54.9225 37.2875H46.62L35.645 17.75C34.205 19.2618 33.2658 21.1804 32.955 23.245C32.5531 25.8274 33.034 28.4698 34.32 30.745L47.505 54.2275C47.715 54.6025 47.9225 54.9775 48.1525 55.3375C48.3625 55.6625 48.5875 55.97 48.86 56.2475C49.4375 56.8275 50.17 57.1975 50.9725 57.305C51.7725 57.41 52.58 57.245 53.2775 56.83C53.979 56.4104 54.5242 55.773 54.83 55.015C55.1425 54.2475 55.195 53.41 54.995 52.605C54.8966 52.2296 54.7584 51.8659 54.5825 51.52C54.395 51.1325 54.1825 50.7625 53.9725 50.3875L50.9325 44.9725H54.9225C55.3425 44.9725 55.76 44.9725 56.18 44.95C56.56 44.9275 56.93 44.88 57.3 44.775C58.0817 44.5522 58.7675 44.0766 59.25 43.4225C59.7388 42.7592 60.0017 41.9564 60 41.1325C60.0017 40.3085 59.7388 39.5058 59.25 38.8425L59.2475 38.84Z" fill="#D26351"/>
</g>
<defs>
<clipPath id="clip0_3_114">
<rect width="60" height="60" fill="white"/>
</clipPath>
</defs>
</svg>
