<svg width="60" height="60" viewBox="0 0 60 60" fill="none" xmlns="http://www.w3.org/2000/svg">
<path d="M7.03125 9.375H4.21875C3.96094 9.375 3.75 9.58594 3.75 9.84375V50.1562C3.75 50.4141 3.96094 50.625 4.21875 50.625H7.03125C7.28906 50.625 7.5 50.4141 7.5 50.1562V9.84375C7.5 9.58594 7.28906 9.375 7.03125 9.375ZM55.8398 9.375H53.0273C52.7695 9.375 52.5586 9.58594 52.5586 9.84375V50.1562C52.5586 50.4141 52.7695 50.625 53.0273 50.625H55.8398C56.0977 50.625 56.3086 50.4141 56.3086 50.1562V9.84375C56.3086 9.58594 56.0977 9.375 55.8398 9.375Z" fill="#D26351"/>
<path d="M11.7188 43.125H18.2812C18.5391 43.125 18.75 42.9141 18.75 42.6562V9.84375C18.75 9.58594 18.5391 9.375 18.2812 9.375H11.7188C11.4609 9.375 11.25 9.58594 11.25 9.84375V42.6562C11.25 42.9141 11.4609 43.125 11.7188 43.125ZM30.5273 43.125H33.3398C33.5977 43.125 33.8086 42.9141 33.8086 42.6562V9.84375C33.8086 9.58594 33.5977 9.375 33.3398 9.375H30.5273C30.2695 9.375 30.0586 9.58594 30.0586 9.84375V42.6562C30.0586 42.9141 30.2695 43.125 30.5273 43.125ZM37.9102 43.125H48.3398C48.5977 43.125 48.8086 42.9141 48.8086 42.6562V9.84375C48.8086 9.58594 48.5977 9.375 48.3398 9.375H37.9102C37.6523 9.375 37.4414 9.58594 37.4414 9.84375V42.6562C37.4414 42.9141 37.6523 43.125 37.9102 43.125ZM22.9688 43.125H25.7812C26.0391 43.125 26.25 42.9141 26.25 42.6562V9.84375C26.25 9.58594 26.0391 9.375 25.7812 9.375H22.9688C22.7109 9.375 22.5 9.58594 22.5 9.84375V42.6562C22.5 42.9141 22.7109 43.125 22.9688 43.125ZM18.3398 46.875H11.7773C11.5195 46.875 11.3086 47.0859 11.3086 47.3438V50.1562C11.3086 50.4141 11.5195 50.625 11.7773 50.625H18.3398C18.5977 50.625 18.8086 50.4141 18.8086 50.1562V47.3438C18.8086 47.0859 18.5977 46.875 18.3398 46.875ZM33.3984 46.875H30.5859C30.3281 46.875 30.1172 47.0859 30.1172 47.3438V50.1562C30.1172 50.4141 30.3281 50.625 30.5859 50.625H33.3984C33.6562 50.625 33.8672 50.4141 33.8672 50.1562V47.3438C33.8672 47.0859 33.6562 46.875 33.3984 46.875ZM48.3984 46.875H37.9688C37.7109 46.875 37.5 47.0859 37.5 47.3438V50.1562C37.5 50.4141 37.7109 50.625 37.9688 50.625H48.3984C48.6562 50.625 48.8672 50.4141 48.8672 50.1562V47.3438C48.8672 47.0859 48.6562 46.875 48.3984 46.875ZM25.8398 46.875H23.0273C22.7695 46.875 22.5586 47.0859 22.5586 47.3438V50.1562C22.5586 50.4141 22.7695 50.625 23.0273 50.625H25.8398C26.0977 50.625 26.3086 50.4141 26.3086 50.1562V47.3438C26.3086 47.0859 26.0977 46.875 25.8398 46.875Z" fill="#D26351"/>
</svg>
