<svg width="60" height="60" viewBox="0 0 60 60" fill="none" xmlns="http://www.w3.org/2000/svg">
<path fill-rule="evenodd" clip-rule="evenodd" d="M27.9299 4.99994C29.2559 5.00022 30.5275 5.52719 31.4649 6.46494L51.4649 26.4649C52.4023 27.4026 52.9289 28.6741 52.9289 29.9999C52.9289 31.3258 52.4023 32.5973 51.4649 33.5349L33.5349 51.4649C32.5973 52.4023 31.3258 52.9289 29.9999 52.9289C28.6741 52.9289 27.4026 52.4023 26.4649 51.4649L6.46494 31.4649C5.52719 30.5275 5.00022 29.2559 4.99994 27.9299V9.99994C4.99994 8.67386 5.52672 7.40209 6.4644 6.4644C7.40209 5.52672 8.67386 4.99994 9.99994 4.99994H27.9299ZM13.9639 21.0342C14.9016 21.9724 16.1735 22.4996 17.4999 22.5C18.8264 22.5003 20.0986 21.9737 21.0367 21.036C21.9749 20.0983 22.5021 18.8264 22.5024 17.4999C22.5028 16.1735 21.9762 14.9013 21.0385 13.9632C20.1008 13.025 18.8289 12.4978 17.5024 12.4974C16.176 12.4971 14.9038 13.0237 13.9657 13.9614C13.0275 14.8991 12.5003 16.171 12.4999 17.4974C12.4996 18.8239 13.0262 20.0961 13.9639 21.0342Z" fill="#D26351"/>
</svg>
